<?xml version="1.0" encoding="iso-8859-1"?>
<!-- Generator: Adobe Illustrator 17.1.0, SVG Export Plug-In . SVG Version: 6.00 Build 0)  -->
<!DOCTYPE svg PUBLIC "-//W3C//DTD SVG 1.1//EN" "http://www.w3.org/Graphics/SVG/1.1/DTD/svg11.dtd">
<svg version="1.1" id="Capa_1" xmlns="http://www.w3.org/2000/svg" xmlns:xlink="http://www.w3.org/1999/xlink" x="0px" y="0px"
	 viewBox="0 0 465 465" style="enable-background:new 0 0 465 465;" xml:space="preserve">
<g>
	<path d="M140.455,388.979c-12.407,0-22.5,10.094-22.5,22.5s10.093,22.5,22.5,22.5s22.5-10.094,22.5-22.5
		S152.861,388.979,140.455,388.979z M140.455,418.979c-4.136,0-7.5-3.364-7.5-7.5s3.364-7.5,7.5-7.5s7.5,3.364,7.5,7.5
		S144.59,418.979,140.455,418.979z"/>
	<path d="M108.815,61.021h63.278c4.142,0,7.5-3.357,7.5-7.5s-3.358-7.5-7.5-7.5h-63.278c-4.142,0-7.5,3.357-7.5,7.5
		S104.673,61.021,108.815,61.021z"/>
	<path d="M273.409,314.697c-4.142,0-7.5,3.357-7.5,7.5v35.762H15V107.041h250.909v35.763c0,4.143,3.358,7.5,7.5,7.5
		s7.5-3.357,7.5-7.5V48.409C280.909,21.716,259.193,0,232.5,0H48.409C21.716,0,0,21.716,0,48.409v368.182
		C0,443.284,21.716,465,48.409,465H232.5c26.693,0,48.409-21.716,48.409-48.409v-94.394
		C280.909,318.055,277.551,314.697,273.409,314.697z M48.409,15H232.5c18.422,0,33.409,14.987,33.409,33.409v43.632H15V48.409
		C15,29.987,29.987,15,48.409,15z M232.5,450H48.409C29.987,450,15,435.013,15,416.591v-43.632h250.909v43.632
		C265.909,435.013,250.922,450,232.5,450z"/>
	<path d="M457.5,284.696H223.141c-4.142,0-7.5,3.357-7.5,7.5v13.238L150.51,232.5l65.131-72.935v13.238c0,4.143,3.358,7.5,7.5,7.5
		H457.5c4.142,0,7.5-3.357,7.5-7.5s-3.358-7.5-7.5-7.5H230.641v-25.397c0-3.11-1.92-5.898-4.827-7.008
		c-2.905-1.108-6.196-0.309-8.268,2.013l-82.686,92.594c-2.541,2.845-2.541,7.146,0,9.99l82.686,92.594
		c1.452,1.626,3.5,2.505,5.596,2.505c0.896,0,1.801-0.16,2.672-0.492c2.906-1.109,4.827-3.897,4.827-7.008v-25.397H457.5
		c4.142,0,7.5-3.357,7.5-7.5S461.642,284.696,457.5,284.696z"/>
</g>
<g>
</g>
<g>
</g>
<g>
</g>
<g>
</g>
<g>
</g>
<g>
</g>
<g>
</g>
<g>
</g>
<g>
</g>
<g>
</g>
<g>
</g>
<g>
</g>
<g>
</g>
<g>
</g>
<g>
</g>
</svg>
